<svg width="94" height="100" viewBox="0 0 94 100" fill="none" xmlns="http://www.w3.org/2000/svg">
<path d="M93.3575 74.9023C87.8806 84.4381 79.4128 91.9024 69.2652 96.1395C59.1175 100.377 47.856 101.15 37.2243 98.3403C26.5926 95.5305 17.1838 89.2941 10.4545 80.5966C3.72524 71.8992 0.0509587 61.2259 0.000526174 50.2293C-0.0499064 39.2327 3.52633 28.5262 10.1755 19.7674C16.8247 11.0086 26.176 4.68617 36.7815 1.77896C47.3869 -1.12826 58.655 -0.45807 68.8411 3.68575C79.0273 7.82957 87.5632 15.2159 93.1273 24.7011L77.7528 33.7199C74.1723 27.6161 68.6793 22.8629 62.1245 20.1963C55.5696 17.5297 48.3185 17.0985 41.4937 18.9693C34.669 20.8401 28.6514 24.9087 24.3725 30.545C20.0937 36.1814 17.7924 43.0711 17.8248 50.1476C17.8573 57.224 20.2217 64.0924 24.5521 69.6893C28.8824 75.2861 34.9371 79.2993 41.7787 81.1075C48.6203 82.9156 55.8672 82.4178 62.3973 79.6912C68.9275 76.9646 74.3766 72.1613 77.901 66.0249L93.3575 74.9023Z" fill="white"/>
<path d="M67.7862 67.6478C57.9631 77.4709 42.0369 77.4709 32.2138 67.6478C22.3908 57.8248 22.3908 41.8985 32.2138 32.0755C42.0369 22.2525 57.9631 22.2525 67.7862 32.0755C77.6092 41.8985 77.6092 57.8248 67.7862 67.6478ZM39.9397 39.8014C34.3836 45.3575 34.3836 54.3658 39.9397 59.922C45.4959 65.4781 54.5041 65.4781 60.0603 59.922C65.6164 54.3658 65.6164 45.3575 60.0603 39.8014C54.5041 34.2453 45.4959 34.2453 39.9397 39.8014Z" fill="white"/>
</svg>
