<svg width="270" height="52" viewBox="0 0 270 52" fill="none" xmlns="http://www.w3.org/2000/svg">
<path d="M192.141 22.0996V51.5H180.917V22.0996H192.141ZM210.221 1.65918L210.371 1.85449L210.718 2.30469H210.717L234.821 33.2344V1.65918H245.948V51.4971H234.995L234.845 51.3057L234.499 50.8623L234.498 50.8613L211.062 20.6963V51.4971H199.837V1.65918H210.221ZM154.818 1.65918L154.968 1.84668L173.664 25.2979L173.927 25.627L173.867 25.6934L173.913 25.751L173.664 26.0635L154.931 49.5596L154.78 49.7471H142.035L142.683 48.9355L161.22 25.6836L142.713 2.4707L142.065 1.65918H154.818ZM116.916 0.5C124.175 0.500073 130.312 3.22459 135.298 8.6543L135.607 8.99219L135.298 9.33008L130.342 14.7539L129.995 15.1338L129.625 14.7754C127.428 12.6442 125.382 11.1975 123.489 10.4053C121.594 9.6119 119.344 9.20708 116.726 9.20703C112.077 9.20703 108.199 10.6885 105.059 13.6396C101.99 16.5829 100.451 20.3175 100.451 24.8838C100.451 29.3866 101.99 33.1925 105.073 36.332C108.16 39.4751 111.813 41.0351 116.058 41.0352C118.672 41.0352 120.884 40.6002 122.709 39.75L122.715 39.748C124.622 38.8884 126.674 37.4642 128.873 35.457L129.229 35.1318L129.567 35.4756L134.618 40.6143L134.943 40.9453L134.639 41.2939C129.718 46.9176 123.609 49.7432 116.344 49.7432C109.174 49.7431 103.169 47.4493 98.3662 42.8486L98.3613 42.8438C93.6212 38.1761 91.254 32.3037 91.2539 25.2646C91.2539 18.1591 93.6867 12.2525 98.5566 7.58496C103.424 2.85667 109.557 0.5 116.916 0.5ZM60.2783 0.5C67.3903 0.500041 73.3647 2.86107 78.166 7.58984H78.165C82.9674 12.2557 85.3682 18.0958 85.3682 25.0742C85.3681 32.0545 82.9337 37.8944 78.0674 42.5596C73.2053 47.2843 67.2659 49.6484 60.2783 49.6484C53.1684 49.6484 47.1944 47.3197 42.3926 42.6553L42.3906 42.6533C37.5894 37.9246 35.1885 32.0534 35.1885 25.0742C35.1885 18.095 37.5892 12.254 42.3926 7.58789C47.1936 2.86049 53.1674 0.5 60.2783 0.5ZM9.41113 1.6416V40.75H30.665V49.1719H0.5V1.6416H9.41113ZM60.2783 8.63672C55.7738 8.63672 51.9964 10.2322 48.915 13.4316C45.8304 16.6345 44.29 20.5058 44.29 25.0742C44.2901 29.6407 45.829 33.5108 48.9111 36.7129C51.9917 39.8499 55.7707 41.416 60.2783 41.416C64.7859 41.416 68.564 39.8499 71.6445 36.7129C74.7269 33.5107 76.2665 29.6409 76.2666 25.0742C76.2666 20.5057 74.7254 16.6346 71.6406 13.4316C68.5593 10.2323 64.7827 8.63676 60.2783 8.63672ZM261.387 2.82129C263.409 2.82134 265.161 3.47832 266.616 4.79297C268.091 6.12504 268.82 7.87696 268.82 10C268.82 11.2291 268.492 12.4186 267.85 13.5615L267.849 13.5605C267.241 14.6637 266.118 16.0528 264.511 17.7168L260.119 22.2578H269.5V26.8965H253.363V22.9688L253.506 22.8232L260.213 15.96C261.812 14.3043 262.874 13.0873 263.423 12.2949L263.425 12.292C263.983 11.4975 264.24 10.7358 264.24 10C264.24 9.22327 263.955 8.59122 263.366 8.07129L263.358 8.06445L263.35 8.05566C262.789 7.51174 262.073 7.22955 261.16 7.22949C259.498 7.22949 258.134 8.05722 257.057 9.84375L256.8 10.2686L256.373 10.0156L253.337 8.21973L252.882 7.9502L253.176 7.51074C254.231 5.93436 255.383 4.75293 256.643 3.99805C257.947 3.20362 259.537 2.82129 261.387 2.82129ZM192.141 1.66113V12.8691H180.917V1.66113H192.141Z" fill="black" stroke="black"/>
</svg>
