<svg width="137" height="137" viewBox="0 0 137 137" fill="none" xmlns="http://www.w3.org/2000/svg">
<path d="M111.617 93.1622C106.14 102.698 97.6727 110.162 87.525 114.399C77.3773 118.636 66.1158 119.41 55.4842 116.6C44.8525 113.79 35.4436 107.554 28.7143 98.8565C21.9851 90.159 18.3108 79.4858 18.2604 68.4891C18.2099 57.4925 21.7862 46.786 28.4354 38.0272C35.0846 29.2684 44.4358 22.946 55.0413 20.0388C65.6468 17.1316 76.9149 17.8018 87.101 21.9456C97.2871 26.0894 105.823 33.4757 111.387 42.9609L96.0127 51.9797C92.4321 45.8759 86.9392 41.1227 80.3843 38.4561C73.8294 35.7895 66.5783 35.3583 59.7536 37.2291C52.9288 39.0999 46.9112 43.1685 42.6324 48.8048C38.3536 54.4412 36.0522 61.331 36.0847 68.4074C36.1171 75.4838 38.4816 82.3522 42.8119 87.9491C47.1423 93.546 53.1969 97.5591 60.0386 99.3673C66.8802 101.175 74.127 100.678 80.6572 97.9511C87.1873 95.2245 92.6364 90.4211 96.1608 84.2847L111.617 93.1622Z" fill="black"/>
<path d="M86.046 85.9077C76.223 95.7307 60.2967 95.7307 50.4737 85.9077C40.6506 76.0846 40.6506 60.1584 50.4737 50.3353C60.2967 40.5123 76.223 40.5123 86.046 50.3353C95.869 60.1584 95.869 76.0846 86.046 85.9077ZM58.1995 58.0612C52.6434 63.6174 52.6434 72.6256 58.1995 78.1818C63.7557 83.7379 72.764 83.7379 78.3201 78.1818C83.8762 72.6256 83.8762 63.6174 78.3201 58.0612C72.764 52.5051 63.7557 52.5051 58.1995 58.0612Z" fill="black"/>
</svg>
